<?xml version="1.0" standalone="no"?>
<!DOCTYPE svg PUBLIC "-//W3C//DTD SVG 20010904//EN"
 "http://www.w3.org/TR/2001/REC-SVG-20010904/DTD/svg10.dtd">
<svg version="1.0" xmlns="http://www.w3.org/2000/svg"
 width="144.000000pt" height="144.000000pt" viewBox="0 0 144.000000 144.000000"
 preserveAspectRatio="xMidYMid meet">
<metadata>
Created by potrace 1.11, written by Peter Selinger 2001-2013
</metadata>
<g transform="translate(0.000000,144.000000) scale(0.100000,-0.100000)"
fill="#000000" stroke="none">
<path d="M0 720 l0 -720 720 0 720 0 0 720 0 720 -720 0 -720 0 0 -720z m1162
494 c145 -49 218 -215 154 -349 -32 -68 -59 -91 -296 -251 -113 -76 -259 -176
-325 -221 -214 -146 -251 -166 -317 -171 -102 -8 -189 41 -246 137 -38 64 -38
164 -2 235 30 59 53 78 305 248 110 75 256 174 325 222 248 170 294 187 402
150z"/>
<path d="M1030 1166 c-25 -6 -81 -37 -125 -67 -44 -31 -128 -88 -187 -129 -60
-40 -108 -74 -108 -77 0 -8 199 -302 221 -327 11 -13 384 239 414 279 50 67
57 135 21 211 -25 55 -74 99 -118 108 -63 13 -75 14 -118 2z"/>
</g>
</svg>
